<svg width="945" height="712" viewBox="0 0 945 712" fill="none" xmlns="http://www.w3.org/2000/svg">
<path d="M898.712 393.35C893.579 398.483 891.012 405.633 891.012 414.8C891.012 423.967 894.862 441.75 902.562 468.15C910.629 494.55 914.662 512.15 914.662 520.95C914.662 549.917 905.129 571.367 886.062 585.3C867.362 599.233 838.579 606.2 799.712 606.2L805.212 565.5C826.479 565.5 840.779 562.75 848.112 557.25C855.445 552.117 859.112 542.4 859.112 528.1C859.112 513.8 855.812 496.933 849.212 477.5C842.979 457.7 839.862 441.383 839.862 428.55C839.862 415.717 842.795 403.25 848.662 391.15C854.895 379.05 862.779 369.883 872.312 363.65C862.779 357.783 854.895 348.983 848.662 337.25C842.795 325.15 839.862 312.5 839.862 299.3C839.862 286.1 842.979 269.783 849.212 250.35C855.812 230.55 859.112 213.5 859.112 199.2C859.112 184.9 855.079 175.183 847.012 170.05C838.945 164.55 823.179 161.8 799.712 161.8L805.212 121.1C842.245 121.1 869.745 128.067 887.712 142C905.679 155.933 914.662 177.383 914.662 206.35C914.662 215.15 910.629 232.75 902.562 259.15C894.862 285.55 891.012 303.333 891.012 312.5C891.012 332.667 904.212 344.033 930.612 346.6L925.112 380.7C912.645 384 903.845 388.217 898.712 393.35Z" fill="#1AEDE6"/>
<path d="M180.798 315.25H182.598L190.098 289.45L205.848 229.6L223.998 232.3L206.148 291.85L194.448 332.8L166.698 334.75L156.048 294.7L138.648 233.35L159.948 229.6L173.598 287.5L180.798 315.25ZM238.193 334L239.993 297.55L238.193 230.5H294.443L292.793 246.55H259.043L258.143 273.1H288.143L286.493 289H257.543L257.393 295L258.443 318.1H294.743L293.093 334H238.193ZM338.871 294.1H330.321V295L332.121 334H312.021L313.821 297.55L312.021 230.5H344.571C354.171 230.5 361.821 233.1 367.521 238.3C373.221 243.5 376.071 250.4 376.071 259C376.071 265.5 374.371 271.45 370.971 276.85C367.671 282.15 363.171 286.35 357.471 289.45L383.571 326.35L365.421 335.65L342.021 293.95C341.321 294.05 340.271 294.1 338.871 294.1ZM339.171 245.65H331.821L330.771 279.55H340.971C345.971 279.55 349.821 277.9 352.521 274.6C355.321 271.3 356.721 266.6 356.721 260.5C356.721 250.6 350.871 245.65 339.171 245.65ZM400.537 304.15C409.037 312.65 417.537 316.9 426.037 316.9C430.437 316.9 433.937 315.9 436.537 313.9C439.237 311.8 440.587 309.15 440.587 305.95C440.587 302.65 438.987 299.9 435.787 297.7C432.587 295.4 428.687 293.4 424.087 291.7C419.587 290 415.087 288.1 410.587 286C406.087 283.8 402.237 280.7 399.037 276.7C395.837 272.7 394.237 267.85 394.237 262.15C394.237 253.15 397.987 245.4 405.487 238.9C412.987 232.3 421.887 229 432.187 229C436.887 229 441.437 229.5 445.837 230.5C450.237 231.5 454.487 232.95 458.587 234.85L448.387 256.75C445.587 254.55 441.737 252.55 436.837 250.75C432.037 248.85 427.787 247.9 424.087 247.9C420.487 247.9 417.537 248.8 415.237 250.6C413.037 252.3 411.937 254.6 411.937 257.5C411.937 260.4 413.537 263 416.737 265.3C419.937 267.5 423.787 269.45 428.287 271.15C432.887 272.85 437.437 274.75 441.937 276.85C446.537 278.85 450.437 281.85 453.637 285.85C456.837 289.85 458.437 294.7 458.437 300.4C458.437 309.8 454.687 318.05 447.187 325.15C439.687 332.15 430.937 335.65 420.937 335.65C413.437 335.65 406.787 333.85 400.987 330.25C395.887 327.15 392.287 324.4 390.187 322L388.837 320.35L400.537 304.15ZM553.826 229.75L551.726 295L553.526 334H532.526L534.326 297.55L534.026 289.6H493.676L493.526 295L495.326 334H474.326L476.126 297.55L474.326 233.5L495.626 229.75L494.126 273.7H533.576L532.526 233.5L553.826 229.75ZM599.191 229.75L597.091 295L598.891 334H577.891L579.691 297.55L577.891 233.5L599.191 229.75ZM666.654 287.2H668.154L690.054 230.2L710.754 230.8L711.354 295.3L714.204 334H693.954L694.704 295L693.054 255.55L675.054 305.2L656.604 306.1L639.804 255.55L638.454 295L639.504 334H620.904L623.004 297.55L623.904 233.2L647.754 229.45L666.654 287.2ZM795.815 334.75L788.465 305.5H752.615L744.665 334L725.465 332.5L738.665 296.05L758.765 231.55L785.615 229.6L804.965 293.8L817.415 331.45L795.815 334.75ZM772.115 249.1H770.165L757.265 289.6H783.965L772.115 249.1ZM242.298 408.9L240.318 467.58L286.218 409.26L304.578 421.5L263.178 469.56L307.098 521.58L284.058 535.98L240.138 473.88L239.778 487.2L241.938 534H216.738L218.898 490.26L216.738 413.4L242.298 408.9ZM320.801 534L322.961 490.26L320.801 409.8H388.301L386.321 429.06H345.821L344.741 460.92H380.741L378.761 480H344.021L343.841 487.2L345.101 514.92H388.661L386.681 534H320.801ZM409.395 534L411.555 490.26L409.395 413.4L434.955 408.9L432.435 487.2L433.695 516.36L470.595 513.48L468.615 534H409.395ZM524.915 511.5H527.075L536.075 480.54L554.975 408.72L576.755 411.96L555.335 483.42L541.295 532.56L507.995 534.9L495.215 486.84L474.335 413.22L499.895 408.72L516.275 478.2L524.915 511.5ZM619.349 408.9L616.829 487.2L618.989 534H593.789L595.949 490.26L593.789 413.4L619.349 408.9ZM743.326 409.44L740.986 487.2L742.966 530.04L721.726 534.54L668.086 447.78V487.2L670.606 534H648.106L650.266 490.26L648.106 410.34L669.706 409.26L723.166 497.28L721.366 412.14L743.326 409.44Z" fill="white"/>
<path d="M12.2119 346.6C24.6786 343.667 33.4786 339.633 38.6119 334.5C43.7452 329.367 46.3119 322.217 46.3119 313.05C46.3119 303.517 42.2786 285.55 34.2119 259.15C26.5119 232.75 22.6619 215.15 22.6619 206.35C22.6619 177.383 32.0119 155.933 50.7119 142C69.7786 128.067 98.7453 121.1 137.612 121.1L132.112 161.8C110.845 161.8 96.5453 164.55 89.2119 170.05C81.8786 175.183 78.2119 184.9 78.2119 199.2C78.2119 213.5 81.3286 230.55 87.5619 250.35C94.1619 269.783 97.4619 286.1 97.4619 299.3C97.4619 312.133 94.3453 324.6 88.1119 336.7C82.2453 348.8 74.5453 357.783 65.0119 363.65C74.5453 369.517 82.2453 378.5 88.1119 390.6C94.3453 402.7 97.4619 415.35 97.4619 428.55C97.4619 441.383 94.1619 457.7 87.5619 477.5C81.3286 496.933 78.2119 513.8 78.2119 528.1C78.2119 542.4 82.2452 552.117 90.3119 557.25C98.3786 562.75 114.145 565.5 137.612 565.5L132.112 606.2C95.0786 606.2 67.5786 599.233 49.6119 585.3C31.6452 571.367 22.6619 549.917 22.6619 520.95C22.6619 512.15 26.5119 494.55 34.2119 468.15C42.2786 441.75 46.3119 423.967 46.3119 414.8C46.3119 394.633 33.1119 383.267 6.71191 380.7L12.2119 346.6Z" fill="#1AEDE6"/>
</svg>
